HIERARCHY
ROOT hips
{
  OFFSET 4.514983404067499e-9 10.105397940993303 1.318478203070619
  CHANNELS 6 Xposition Yposition Zposition Yrotation Xrotation Zrotation
  JOINT spine
  {
    OFFSET -3.891297943093837e-9 0.5743022203102706 0
    CHANNELS 3 Yrotation Xrotation Zrotation
    JOINT chest
    {
      OFFSET 0 1.2550312016247926 0
      CHANNELS 3 Yrotation Xrotation Zrotation
      JOINT upperChest
      {
        OFFSET 0 1.2059856050120283 0
        CHANNELS 3 Yrotation Xrotation Zrotation
        JOINT neck
        {
          OFFSET 0 1.5290392449770056 0
          CHANNELS 3 Yrotation Xrotation Zrotation
          JOINT head
          {
            OFFSET 0 0.8186276690878121 0
            CHANNELS 3 Yrotation Xrotation Zrotation
            JOINT leftEye
            {
              OFFSET 0.4540883942785781 -0.2684596961258452 0.6133497327236779
              CHANNELS 3 Yrotation Xrotation Zrotation
              End Site
              {
                OFFSET 0.4540883942785781 -0.2684596961258452 0.6133497327236779
              }
            }
            JOINT rightEye
            {
              OFFSET -0.4540889229417456 -0.26846010916843954 0.6133525398671689
              CHANNELS 3 Yrotation Xrotation Zrotation
              End Site
              {
                OFFSET -0.4540889229417456 -0.26846010916843954 0.6133525398671689
              }
            }
          }
        }
        JOINT leftShoulder
        {
          OFFSET 1.1700010731725468 -0.4176065950681176 0
          CHANNELS 3 Yrotation Xrotation Zrotation
          JOINT leftUpperArm
          {
            OFFSET 1.1803911524554955 0 0
            CHANNELS 3 Yrotation Xrotation Zrotation
            JOINT leftLowerArm
            {
              OFFSET 2.4406171707858904 0 0
              CHANNELS 3 Yrotation Xrotation Zrotation
              JOINT leftHand
              {
                OFFSET 2.3832177068873874 0 0
                CHANNELS 3 Yrotation Xrotation Zrotation
                JOINT leftIndexProximal
                {
                  OFFSET 0.7310175006235151 0.08192774217833776 0.20404791572985242
                  CHANNELS 3 Yrotation Xrotation Zrotation
                  JOINT leftIndexIntermediate
                  {
                    OFFSET 0.3688845439429529 -0.010662034455094949 -0.014226011560394963
                    CHANNELS 3 Yrotation Xrotation Zrotation
                    JOINT leftIndexDistal
                    {
                      OFFSET 0.2271119941018298 -0.007897656478952575 -0.007580683836364496
                      CHANNELS 3 Yrotation Xrotation Zrotation
                      End Site
                      {
                        OFFSET 0.2271119941018298 -0.007897656478952575 -0.007580683836364496
                      }
                    }
                  }
                }
                JOINT leftLittleProximal
                {
                  OFFSET 0.678269929308182 0.08192620621401336 -0.323876516389586
                  CHANNELS 3 Yrotation Xrotation Zrotation
                  JOINT leftLittleIntermediate
                  {
                    OFFSET 0.34904545821382604 -0.0000017106393073174075 8.629360392919949e-9
                    CHANNELS 3 Yrotation Xrotation Zrotation
                    JOINT leftLittleDistal
                    {
                      OFFSET 0.2011060672849896 0.0031247840072243793 0.0038660318003989197
                      CHANNELS 3 Yrotation Xrotation Zrotation
                      End Site
                      {
                        OFFSET 0.2011060672849896 0.0031247840072243793 0.0038660318003989197
                      }
                    }
                  }
                }
                JOINT leftMiddleProximal
                {
                  OFFSET 0.7368181082522638 0.0819260272939426 0.02272335773438093
                  CHANNELS 3 Yrotation Xrotation Zrotation
                  JOINT leftMiddleIntermediate
                  {
                    OFFSET 0.41136739116025356 -0.0000015892429323649537 5.27860346960507e-8
                    CHANNELS 3 Yrotation Xrotation Zrotation
                    JOINT leftMiddleDistal
                    {
                      OFFSET 0.25378150303820757 -0.0000015332469289752737 1.3442958385345705e-8
                      CHANNELS 3 Yrotation Xrotation Zrotation
                      End Site
                      {
                        OFFSET 0.25378150303820757 -0.0000015332469289752737 1.3442958385345705e-8
                      }
                    }
                  }
                }
                JOINT leftRingProximal
                {
                  OFFSET 0.7284256823094712 0.08192611199801392 -0.1508405069143483
                  CHANNELS 3 Yrotation Xrotation Zrotation
                  JOINT leftRingIntermediate
                  {
                    OFFSET 0.381593741461262 -0.0000016975471202052006 6.592486757883709e-8
                    CHANNELS 3 Yrotation Xrotation Zrotation
                    JOINT leftRingDistal
                    {
                      OFFSET 0.22014536669820362 -0.0027420652959939673 -0.005037497035641991
                      CHANNELS 3 Yrotation Xrotation Zrotation
                      End Site
                      {
                        OFFSET 0.22014536669820362 -0.0027420652959939673 -0.005037497035641991
                      }
                    }
                  }
                }
                JOINT leftThumbProximal
                {
                  OFFSET 0.10842212958334652 -0.16573713992498873 -0.07779936144556289
                  CHANNELS 3 Yrotation Xrotation Zrotation
                  JOINT leftThumbIntermediate
                  {
                    OFFSET 0.40720553822379024 -0.01751267955631075 0.31852684427382305
                    CHANNELS 3 Yrotation Xrotation Zrotation
                    JOINT leftThumbDistal
                    {
                      OFFSET 0.23412859218032667 -0.01859690713588802 0.2146635043319005
                      CHANNELS 3 Yrotation Xrotation Zrotation
                      End Site
                      {
                        OFFSET 0.23412859218032667 -0.01859690713588802 0.2146635043319005
                      }
                    }
                  }
                }
              }
            }
          }
        }
        JOINT rightShoulder
        {
          OFFSET -1.1700037144859516 -0.41760703856471126 0
          CHANNELS 3 Yrotation Xrotation Zrotation
          JOINT rightUpperArm
          {
            OFFSET -1.1803910289368023 0 0
            CHANNELS 3 Yrotation Xrotation Zrotation
            JOINT rightLowerArm
            {
              OFFSET -2.440617418222133 0 0
              CHANNELS 3 Yrotation Xrotation Zrotation
              JOINT rightHand
              {
                OFFSET -2.3832181162662343 0 0
                CHANNELS 3 Yrotation Xrotation Zrotation
                JOINT rightIndexProximal
                {
                  OFFSET -0.7310168852843362 0.08192787643494381 0.20404785424302163
                  CHANNELS 3 Yrotation Xrotation Zrotation
                  JOINT rightIndexIntermediate
                  {
                    OFFSET -0.3688846010723953 -0.01066191355993129 -0.014226020535245201
                    CHANNELS 3 Yrotation Xrotation Zrotation
                    JOINT rightIndexDistal
                    {
                      OFFSET -0.22711216276130997 -0.007898902439410271 -0.007580718044857868
                      CHANNELS 3 Yrotation Xrotation Zrotation
                      End Site
                      {
                        OFFSET -0.22711216276130997 -0.007898902439410271 -0.007580718044857868
                      }
                    }
                  }
                }
                JOINT rightLittleProximal
                {
                  OFFSET -0.6782685897119165 0.08192501740206293 -0.3238766118101876
                  CHANNELS 3 Yrotation Xrotation Zrotation
                  JOINT rightLittleIntermediate
                  {
                    OFFSET -0.34904682243945895 -2.664019085329983e-7 3.792712677253007e-8
                    CHANNELS 3 Yrotation Xrotation Zrotation
                    JOINT rightLittleDistal
                    {
                      OFFSET -0.20110609302945537 0.0031260842677420797 0.0038661724369087186
                      CHANNELS 3 Yrotation Xrotation Zrotation
                      End Site
                      {
                        OFFSET -0.20110609302945537 0.0031260842677420797 0.0038661724369087186
                      }
                    }
                  }
                }
                JOINT rightMiddleProximal
                {
                  OFFSET -0.7368168209984411 0.08192485183145659 0.022723294831187846
                  CHANNELS 3 Yrotation Xrotation Zrotation
                  JOINT rightMiddleIntermediate
                  {
                    OFFSET -0.4113687575187084 -9.03141548214137e-8 4.759541079313312e-8
                    CHANNELS 3 Yrotation Xrotation Zrotation
                    JOINT rightMiddleDistal
                    {
                      OFFSET -0.2537822083525749 -9.554208624251714e-8 -1.6364827826187422e-9
                      CHANNELS 3 Yrotation Xrotation Zrotation
                      End Site
                      {
                        OFFSET -0.2537822083525749 -9.554208624251714e-8 -1.6364827826187422e-9
                      }
                    }
                  }
                }
                JOINT rightRingProximal
                {
                  OFFSET -0.7284243957721679 0.08192492753028224 -0.15084062217729294
                  CHANNELS 3 Yrotation Xrotation Zrotation
                  JOINT rightRingIntermediate
                  {
                    OFFSET -0.381595106800805 -2.5662436442530634e-7 2.929475539925619e-8
                    CHANNELS 3 Yrotation Xrotation Zrotation
                    JOINT rightRingDistal
                    {
                      OFFSET -0.22014544912608125 -0.002738002524970362 -0.0050375115645966
                      CHANNELS 3 Yrotation Xrotation Zrotation
                      End Site
                      {
                        OFFSET -0.22014544912608125 -0.002738002524970362 -0.0050375115645966
                      }
                    }
                  }
                }
                JOINT rightThumbProximal
                {
                  OFFSET -0.10842026863657162 -0.16573778435706465 -0.07779917642461898
                  CHANNELS 3 Yrotation Xrotation Zrotation
                  JOINT rightThumbIntermediate
                  {
                    OFFSET -0.40720600760521597 -0.017512298079938038 0.3185267362029824
                    CHANNELS 3 Yrotation Xrotation Zrotation
                    JOINT rightThumbDistal
                    {
                      OFFSET -0.2341289751103648 -0.018594162598156494 0.21466399510514025
                      CHANNELS 3 Yrotation Xrotation Zrotation
                      End Site
                      {
                        OFFSET -0.2341289751103648 -0.018594162598156494 0.21466399510514025
                      }
                    }
                  }
                }
              }
            }
          }
        }
      }
    }
  }
  JOINT leftUpperLeg
  {
    OFFSET -0.8565189721517369 0.4427277044191169 0
    CHANNELS 3 Yrotation Xrotation Zrotation
    JOINT leftLowerLeg
    {
      OFFSET 0 -3.918486704769693 0
      CHANNELS 3 Yrotation Xrotation Zrotation
      JOINT leftFoot
      {
        OFFSET 6.174701361744139e-7 -0.055233446196002234 4.612027801972084
        CHANNELS 3 Yrotation Xrotation Zrotation
        JOINT leftToes
        {
          OFFSET -3.4372540951010944e-7 -0.705284859504459 1.2256624571888697
          CHANNELS 3 Yrotation Xrotation Zrotation
          End Site
          {
            OFFSET -3.4372540951010944e-7 -0.705284859504459 1.2256624571888697
          }
        }
      }
    }
  }
  JOINT rightUpperLeg
  {
    OFFSET 0.8565189732197466 0.44272769569168136 0
    CHANNELS 3 Yrotation Xrotation Zrotation
    JOINT rightLowerLeg
    {
      OFFSET 0 -3.918486692649319 0
      CHANNELS 3 Yrotation Xrotation Zrotation
      JOINT rightFoot
      {
        OFFSET 6.995136552362391e-7 -0.05523244834012664 4.612028499942008
        CHANNELS 3 Yrotation Xrotation Zrotation
        JOINT rightToes
        {
          OFFSET -4.2566694985479714e-7 -0.7052846587611067 1.22566236096697
          CHANNELS 3 Yrotation Xrotation Zrotation
          End Site
          {
            OFFSET -4.2566694985479714e-7 -0.7052846587611067 1.22566236096697
          }
        }
      }
    }
  }
}
MOTION
Frames: 4
Frame Time: 0.03333333333333333
-0.031565774232149124 -0.24648451936244342 0.01424152310937643 -8.729334586762759 -4.065818851197282 1.0947203367280256 0.3789188800021259 3.9209625098781284 -0.1477513048104222 1.5272244856354333 15.67657888148445 0.29433274917604296 0 0 0 -0.5788243976267585 3.0081783778498346 2.1620150791757338 1.3889603087277773 -9.093643772109072 -3.3157506034337616 0 0 0 0 0 0 0.000001864615397781582 -0.000004309578516958708 0.00026567740726096163 -21.125680256786087 5.123288128823125 -72.64515902602565 -78.09225141664943 0.07648173295498897 1.4598708210098854 -3.4131921145168547 35.86609970295909 23.21327710302286 1.998118196072228 -6.063118491625482 -8.172416255508217 0.13368909724701863 -0.04444882451911423 -20.168889161172693 0.000009051990934519841 0.000005621339824011076 -0.000003041032246029818 0.9295931037248399 -0.4336297714460781 -42.05486079705554 -1.1637395035962337 -0.059285592337508804 -8.711765403081152 -7.226043651889195e-7 0.000001546240856389587 9.333821952204942e-9 2.0374199427556827 -0.38801571396234463 -14.05120341421753 -2.058898345564101 -0.4166670098458187 -22.274784963247537 -0.0000038117013062316366 -0.0000037185551238304296 -7.617794353115678e-7 4.398946859634145 0.4959480963993879 -29.215045091964818 -2.4881191047060462 -0.5706689656550841 -26.22865444932319 0.000005187709614294055 7.173245426399403e-7 8.154040961297917e-7 -10.651278315576278 -3.828349022827876 -3.5172007551838833 21.251863330476805 3.180546469412612 -4.856152006539743 0.000007225254568994905 6.411346860231686e-7 0.0000062192551992452395 0.000004862274037953713 -0.000015202208657627388 0.00033695974230001183 6.015231296184994 11.209408924881727 75.2644438259053 90.3258029016782 0.47451808949874963 -1.4339641908677434 5.979757101853191 30.47809704114528 -18.980896238498364 -6.828662700040841 -6.036346167095453 18.80378934559969 -0.28086091870918123 0.029828808159799734 8.966144455252119 0.000005885559747841575 0.0000014951033384433927 -0.00000701780708822863 2.388003897241659 2.8980472813302165 33.46761741730096 6.559201632360861 -2.2221858102308345 37.59125383883016 1.6628260911929426e-9 -3.1805543023118527e-15 -2.179830267765673e-11 -1.4525015128001726 -1.92767398330588 22.943141465123176 1.6565279452801736 -0.3440226873494176 22.715681403195823 1.215836204053751e-9 -3.180554491887685e-15 -1.6036856771618462e-11 -4.297754241672154 2.100803160228238 19.59480799707314 5.513181997759617 -2.8565739536870622 52.43581234153494 -4.3803240153668535e-10 2.0219334966109398e-23 5.2894833502657416e-12 5.827598359671161 5.254188540439683 14.02279529697479 -12.178204475439035 3.440366506901646 1.02850224847488 0.0000032049801200841554 -0.0000038024322030012373 -0.000008323530939162427 1.4756779878325728 -5.000968118616022 4.150236745296866 -0.21489113394608964 21.200340573756954 -0.8626790779036979 11.883966715753887 -10.954064135011802 -6.722628021449898 -0.02583358937146048 -0.01657752134983509 0.029047559940754357 0.3525768787493433 -6.754964793164819 -4.636173335143939 0.12429270255098919 24.501134893916166 0.9676376448705132 -8.42956803609329 -13.542322197897708 6.098270371485613 -0.10631945337656092 -0.012215367370046639 0.26351142358892266
-0.030929377302527428 -0.24740290772914264 0.01915508508682251 -8.588925312636418 -4.129548631722966 1.126189198824653 0.41027932377463927 3.877530825023581 -0.13738753174500942 1.6568980077744149 15.501555961976418 0.3567976561204645 0 0 0 -0.7790230535394428 2.0042825151817363 1.8330588487134036 4.567740313419487 -7.202658339549159 -4.490108585778989 0 0 0 0 0 0 0.34804947191929375 -0.09953713055415314 -0.3594435163118132 -22.255196302150953 4.8023055879542325 -72.2465273788957 -77.15567497572503 0.06591264069957715 1.4216923538391442 -2.691354656108255 35.438753657329045 22.930915597783418 2.0194671583640047 -6.0479493768687185 -8.449694889350615 0.13246412715690353 -0.04306205558934674 -19.87899385524071 0.000009051990934519841 0.000005621339824011076 -0.000003041032246029818 2.158714594070019 -1.1052649793915401 -41.23404646102908 -1.2292261279354793 -0.04979335930759352 -9.211634994342756 -7.226043651889195e-7 0.000001546240856389587 9.333821952204942e-9 2.0435541045552092 -0.38583915518313633 -14.078823934670499 -2.0196563891379418 -0.3979784462482151 -21.829436862448603 -0.0000038117013062316366 -0.0000037185551238304296 -7.617794353115678e-7 4.459792139693964 0.4979047523827444 -28.692116207625048 -2.418608148748233 -0.5427108276888601 -25.445976629738635 0.000005187709614294055 7.173245426399403e-7 8.154040961297917e-7 -9.466878022012708 -5.622833846120907 -3.787686650606646 21.911317140969125 1.758584295134655 -4.580466893131912 0.000007225254568994905 6.411346860231686e-7 0.0000062192551992452395 0.5992291285573003 -0.04245550594068366 0.8118879060012308 5.342330656747025 12.008323267497808 74.20321872093166 90.02815062197851 0.4843921139967362 -1.4391567316555336 5.955462451854089 30.037662786459762 -19.238619419580242 -6.520517289809743 -6.161495467734995 18.54594996692089 -0.28086817569903055 0.02982157442819967 8.966121996136087 0.000005885559747841575 0.0000014951033384433927 -0.00000701780708822863 2.2601629068974343 3.075457902692364 32.76822515312544 6.299588869093166 -2.088364759009593 35.80954246019719 1.6628260911929426e-9 -3.1805543023118527e-15 -2.179830267765673e-11 -1.4734229687419453 -1.9247795492043007 22.61303616009752 1.6524164118412812 -0.3422952855181342 22.656187230754945 1.215836204053751e-9 -3.180554491887685e-15 -1.6036856771618462e-11 -4.088603150238664 2.024104872421738 19.57027591248337 5.341052993944511 -2.648267182655813 50.089979217965684 -4.3803240153668535e-10 2.0219334966109398e-23 5.2894833502657416e-12 5.827588202585713 5.2541859683112735 14.022800287100077 -11.691821434384295 3.199755407918159 1.1031860478524806 0.0000032049801200841554 -0.0000038024322030012373 -0.000008323530939162427 1.8819811518549072 -4.966732129917194 4.167051788865561 -0.20895462693296718 21.23291373500622 -0.8621203979471171 11.316536755855036 -11.00976495294177 -6.629110728769967 -0.02583358937146048 -0.01657752134983509 0.029047559940754357 1.5468312048010104 -6.574379787771802 -4.527103144387152 0.12482222429780769 24.557927545942658 0.9699718695671745 -9.831044849962977 -13.589917824636549 6.389347444146495 -0.10631945337656092 -0.012215367370046639 0.26351142358892266
-0.023234447464346886 -0.25305247437953327 0.023784685879945755 -8.438858982407048 -4.2162015910219575 1.166107175818628 0.6094412966463651 3.742276307551391 -0.05665005021201823 2.4945902003153626 14.949928011320688 0.7667912874151653 0 0 0 -2.034688773885226 -0.08344759888192577 0.49833025216393656 9.914903328554525 -3.0375670995027284 -5.261671330758702 0 0 0 0 0 0 1.1759832551465808 -0.2541551873935924 -0.8576556859213851 -26.37638313223488 3.7472233892297973 -71.62299059977725 -75.58106286520729 0.08925788199164161 1.3156913080087627 0.553822758288326 36.666740410970064 20.996662787442943 2.0501396984080302 -6.011066367239736 -9.092875937358466 0.12995827060066042 -0.04013150679143584 -19.26523757936136 0.000009051990934519841 0.000005621339824011076 -0.000003041032246029818 4.755984360956938 -2.6640086842549997 -39.50699902693276 -1.3830777459299415 -0.04075254723251474 -10.37034200703142 -7.226043651889195e-7 0.000001546240856389587 9.333821952204942e-9 2.070871513415816 -0.3759840683091097 -14.202235009851234 -1.9350721418319914 -0.36146089104941176 -20.87700007992468 -0.0000038117013062316366 -0.0000037185551238304296 -7.617794353115678e-7 4.598043248661694 0.4090308201949549 -27.592337506932576 -2.267323940234074 -0.4823504551097724 -23.769288438442203 0.000005187709614294055 7.173245426399403e-7 8.154040961297917e-7 -6.8962814222728985 -9.586288632366122 -4.556735191744013 23.22974121913404 -1.3951846964083547 -4.086992649922652 0.000007225254568994905 6.411346860231686e-7 0.0000062192551992452395 1.608224712483131 -0.013513987134237272 1.9243181011979507 3.802879063083928 13.954892638212181 72.23376351680157 88.86251616758383 0.4806055469715361 -1.483196703705216 5.200250208713167 27.658559306756242 -20.634596223635622 -5.833203286639203 -6.423345689749465 17.9073357002551 -0.2808522209933941 0.02981798924541051 8.966140238546183 0.000005885559747841575 0.0000014951033384433927 -0.00000701780708822863 1.96531561749383 3.4089624182897764 31.136932508969615 5.710838600966493 -1.7714965975798478 31.863615019979612 1.6628260911929426e-9 -3.1805543023118527e-15 -2.179830267765673e-11 -1.5264071986610648 -1.9145754961683785 21.794913256615065 1.6345935832087077 -0.3348079601342351 22.399615684989364 1.215836204053751e-9 -3.180554491887685e-15 -1.6036856771618462e-11 -3.6604986502448504 1.8674691332665574 19.52343288920288 4.936592398438617 -2.210549134749759 45.0070469073533 -4.3803240153668535e-10 2.0219334966109398e-23 5.2894833502657416e-12 5.827592893783971 5.254171821605205 14.02279779245217 -10.620313027963743 2.638069105849025 1.2497990562105301 0.0000032049801200841554 -0.0000038024322030012373 -0.000008323530939162427 3.3910738019231967 -5.142268066752109 4.272319556185107 -0.19088747248809979 21.57725973951893 -0.8704045614835155 9.577845519582956 -11.249867781607154 -6.317534241987044 -0.02583358937146048 -0.01657752134983509 0.029047559940754357 4.023215161106356 -6.408098278762048 -4.320057484556005 0.1366990452417129 24.851960184476294 0.9864992011694748 -12.581425342578113 -13.689801209491039 7.012682731884648 -0.10631945337656092 -0.012215367370046639 0.26351142358892266
-0.0009990689577534795 -0.27105879914759967 -0.0005814505275338888 -8.696332000717183 -4.2691264847333255 1.11286403017702 0.8822586122943554 3.5889659490882746 0.11441596089208507 3.6631213777021494 14.311145715730703 1.5228631547810487 0 0 0 -6.259369032173127 -2.7367361938183663 -2.440554190891609 11.44835488165823 -0.11737272083291365 -2.1416400303802376 0 0 0 0 0 0 2.0779328817099967 -0.38643939836821223 -1.4366364323486946 -32.76159524346476 3.3534182515868984 -70.85807738395648 -75.94133975045935 0.212594207839498 1.174511675312385 5.283146169877494 43.97765503178509 16.2373271404528 2.059180318515615 -5.965050458789018 -9.862065777631674 0.12741213468746582 -0.03690691639222152 -18.603208739454864 0.000009051990934519841 0.000005621339824011076 -0.000003041032246029818 7.503845331159581 -4.583504908977618 -37.637669265298065 -1.5692725852955969 -0.049730293425797815 -11.754869852924493 -7.226043651889195e-7 0.000001546240856389587 9.333821952204942e-9 2.122504185302462 -0.3569474880526319 -14.43572166506969 -1.8420920090772828 -0.3269336879362507 -19.836870146591643 -0.0000038117013062316366 -0.0000037185551238304296 -7.617794353115678e-7 4.756143908985634 0.16886362496217958 -26.415635347372017 -2.0979900080088925 -0.41578581214985944 -21.934388760205938 0.000005187709614294055 7.173245426399403e-7 8.154040961297917e-7 -4.066150398647014 -14.104663240263898 -5.674478388137984 24.48662747644355 -5.0194135116267775 -3.705397206112371 0.000007225254568994905 6.411346860231686e-7 0.0000062192551992452395 1.77909577308746 0.38237417037896704 1.3944924737528859 4.569370257594422 14.401057924612893 71.0500256894835 86.18176983166633 0.4608895403820397 -1.5380641406569346 4.257395519013889 24.53953440949705 -21.420864524520976 -5.056237565177119 -6.686103504617484 17.118887319289577 -0.28084899270010777 0.02983002878947503 8.966146141934468 0.000005885559747841575 0.0000014951033384433927 -0.00000701780708822863 1.6270473259830893 3.6879616269370867 29.22048238954895 5.02419395626268 -1.3953552882741098 27.457305871349185 1.6628260911929426e-9 -3.1805543023118527e-15 -2.179830267765673e-11 -1.59347045756649 -1.8981773811689573 20.786496423245683 1.6022879129881378 -0.3215278534962026 21.935309765645925 1.215836204053751e-9 -3.180554491887685e-15 -1.6036856771618462e-11 -3.2204336001259417 1.7068770356710719 19.480420005395935 4.446175619468821 -1.7589109106957654 39.452067182518945 -4.3803240153668535e-10 2.0219334966109398e-23 5.2894833502657416e-12 5.827598011454708 5.254176108485798 14.022796960626383 -9.434122741880845 1.9705887734926253 1.3845462631144563 0.0000032049801200841554 -0.0000038024322030012373 -0.000008323530939162427 5.883711440951367 -6.002606404702017 4.519405063191283 -0.16895257181805123 22.807230756253755 -0.9133359578280114 7.176886862400544 -11.783127934952448 -5.822511918678738 -0.02583358937146048 -0.01657752134983509 0.029047559940754357 6.649460747636878 -6.854454501705666 -4.123284381484805 0.16477718169751399 25.766371685153175 1.0346058033568162 -15.027434809574556 -13.821495912124337 7.685317907635673 -0.10631945337656092 -0.012215367370046639 0.26351142358892266
